<?xml version="1.0" encoding="UTF-8" standalone="no"?>
<!-- Created with Inkscape (http://www.inkscape.org/) -->

<svg
   xmlns:sketch="http://www.bohemiancoding.com/sketch/ns"
   xmlns:dc="http://purl.org/dc/elements/1.1/"
   xmlns:cc="http://creativecommons.org/ns#"
   xmlns:rdf="http://www.w3.org/1999/02/22-rdf-syntax-ns#"
   xmlns:svg="http://www.w3.org/2000/svg"
   xmlns="http://www.w3.org/2000/svg"
   xmlns:sodipodi="http://sodipodi.sourceforge.net/DTD/sodipodi-0.dtd"
   xmlns:inkscape="http://www.inkscape.org/namespaces/inkscape"
   width="160.90816mm"
   height="202.87758mm"
   viewBox="0 0 160.90816 202.87758"
   version="1.1"
   id="svg4612"
   inkscape:version="0.92.1 r15371"
   sodipodi:docname="logo.svg">
  <defs
     id="defs4606" />
  <sodipodi:namedview
     id="base"
     pagecolor="#ffffff"
     bordercolor="#666666"
     borderopacity="1.0"
     inkscape:pageopacity="0.0"
     inkscape:pageshadow="2"
     inkscape:zoom="0.35"
     inkscape:cx="-198.77873"
     inkscape:cy="251.96212"
     inkscape:document-units="mm"
     inkscape:current-layer="layer1"
     showgrid="false"
     fit-margin-top="10"
     fit-margin-bottom="10"
     fit-margin-right="10"
     fit-margin-left="10"
     inkscape:window-width="1920"
     inkscape:window-height="1051"
     inkscape:window-x="-9"
     inkscape:window-y="-9"
     inkscape:window-maximized="1" />
  <metadata
     id="metadata4609">
    <rdf:RDF>
      <cc:Work
         rdf:about="">
        <dc:format>image/svg+xml</dc:format>
        <dc:type
           rdf:resource="http://purl.org/dc/dcmitype/StillImage" />
        <dc:title></dc:title>
      </cc:Work>
    </rdf:RDF>
  </metadata>
  <g
     inkscape:label="Layer 1"
     inkscape:groupmode="layer"
     id="layer1"
     transform="translate(-24.623302,-12.620735)">
    <g
       id="g4489"
       transform="matrix(2.034437,0,0,2.034437,3.3575657,12.340725)">
      <path
         style="clip-rule:evenodd;fill-rule:evenodd"
         inkscape:connector-curvature="0"
         d="m 84.32,35.3 -7.29,-7.29 c -0.413,-0.413 -1.088,-0.413 -1.5,0 h -0.001 c -0.412,0.413 -0.412,1.088 0,1.501 l 0.036,0.036 -3.299,3.299 c -0.417,0.417 -0.417,1.097 0,1.514 l 0.726,0.726 -1.261,1.261 c -0.392,0.392 -0.44,0.998 -0.147,1.443 C 66.738,33.492 60.613,30.606 53.867,29.789 V 27.12 c 4.49,-1.505 7.739,-5.749 7.739,-10.74 0,-6.246 -5.081,-11.327 -11.328,-11.327 -6.246,0 -11.327,5.081 -11.327,11.327 0,4.991 3.247,9.235 7.738,10.74 v 2.592 c -6.98,0.691 -13.328,3.592 -18.328,7.992 0.346,-0.45 0.318,-1.096 -0.093,-1.508 l -1.262,-1.262 0.726,-0.726 c 0.417,-0.417 0.417,-1.097 0,-1.514 l -3.299,-3.3 0.036,-0.036 c 0.413,-0.413 0.413,-1.088 0,-1.501 -0.413,-0.413 -1.088,-0.413 -1.501,0 l -7.29,7.29 c -0.413,0.413 -0.413,1.089 0,1.5 v 0.001 c 0.413,0.412 1.088,0.412 1.501,0 l 0.036,-0.037 3.299,3.299 c 0.417,0.417 1.096,0.417 1.514,0 l 0.727,-0.726 1.261,1.261 c 0.393,0.394 1.003,0.44 1.448,0.142 -5.121,5.775 -8.239,13.363 -8.239,21.658 0,18.01 14.689,32.699 32.698,32.699 18.01,0 32.698,-14.689 32.698,-32.699 0,-8.244 -3.08,-15.792 -8.146,-21.553 0.45,0.343 1.097,0.315 1.508,-0.095 l 1.261,-1.262 0.727,0.726 c 0.416,0.417 1.097,0.417 1.514,0 l 3.299,-3.299 0.035,0.037 c 0.413,0.412 1.089,0.412 1.501,0 V 36.8 c 0.413,-0.412 0.413,-1.087 0,-1.5 z M 40.48,16.38 c 0,-5.403 4.396,-9.799 9.798,-9.799 5.402,0 9.797,4.396 9.797,9.799 0,4.136 -2.576,7.679 -6.209,9.115 v -4.212 h 1.566 c 0.391,0 0.707,-0.319 0.707,-0.708 v -6.771 c 0,-0.389 -0.316,-0.708 -0.707,-0.708 h -10.31 c -0.389,0 -0.707,0.319 -0.707,0.708 v 6.771 c 0,0.389 0.318,0.708 0.707,0.708 h 1.567 v 4.212 C 43.058,24.059 40.48,20.516 40.48,16.38 Z m 38.689,45.868 c 0,16.107 -13.137,29.244 -29.244,29.244 -16.107,0 -29.244,-13.137 -29.244,-29.244 0,-16.107 13.137,-29.244 29.244,-29.244 16.107,0 29.244,13.137 29.244,29.244 z"
         id="path4485" />
      <path
         style="clip-rule:evenodd;fill-rule:evenodd"
         inkscape:connector-curvature="0"
         d="m 49.925,34.914 c -15.055,0 -27.334,12.278 -27.334,27.334 0,15.055 12.279,27.334 27.334,27.334 15.056,0 27.334,-12.279 27.334,-27.334 0,-15.056 -12.279,-27.334 -27.334,-27.334 z M 50.169,87.701 49.925,62.248 49.837,36.795 c 0.03,0 0.059,0 0.088,0 14.059,0 25.454,11.396 25.454,25.453 0,13.961 -11.248,25.318 -25.21,25.453 z"
         id="path4487" />
    </g>
    <g
       id="g4523"
       transform="matrix(0.61947118,0,0,0.61947118,97.098846,107.31005)">
      <path
         inkscape:connector-curvature="0"
         d="m 41.706,54.878 c 1.637,0 3.115,-0.701 4.147,-1.819 1.033,1.117 2.509,1.818 4.146,1.818 1.638,0 3.115,-0.701 4.147,-1.819 1.032,1.119 2.51,1.82 4.149,1.82 3.114,0 5.647,-2.533 5.647,-5.647 V 46.162 C 71.251,44.793 76.796,38.257 76.796,30.714 V 26.686 C 76.795,14.729 67.067,5 55.109,5 H 44.891 C 32.933,5 23.205,14.729 23.205,26.687 v 4.028 c 0,7.542 5.545,14.079 12.854,15.448 v 3.069 c -10e-4,3.113 2.532,5.646 5.647,5.646 z M 26.205,30.714 V 26.686 C 26.205,16.383 34.587,8 44.891,8 H 55.11 c 10.304,0 18.686,8.383 18.686,18.687 v 4.028 c 0,6.475 -5.05,12.033 -11.497,12.653 -0.77,0.074 -1.356,0.72 -1.356,1.493 v 4.371 c 0,1.459 -1.188,2.647 -2.647,2.647 -1.459,0 -2.647,-1.188 -2.647,-2.647 0,-0.746 -0.552,-1.379 -1.291,-1.485 -0.071,-0.01 -0.142,-0.015 -0.213,-0.015 -0.358,0 -0.708,0.128 -0.982,0.367 -0.329,0.285 -0.518,0.698 -0.518,1.133 0,1.459 -1.187,2.646 -2.646,2.646 -1.457,0 -2.644,-1.186 -2.646,-2.643 -0.001,-0.828 -0.672,-1.498 -1.5,-1.498 -0.828,0 -1.499,0.671 -1.5,1.499 -0.001,1.458 -1.189,2.644 -2.646,2.644 -1.46,0 -2.647,-1.188 -2.647,-2.647 v -4.371 c 0,-0.773 -0.587,-1.419 -1.356,-1.493 -6.449,-0.622 -11.499,-6.18 -11.499,-12.655 z"
         id="path4515" />
      <path
         inkscape:connector-curvature="0"
         d="m 46.721,30.785 c 0,-4.175 -3.396,-7.571 -7.571,-7.571 -4.175,0 -7.571,3.396 -7.571,7.571 0,4.175 3.396,7.571 7.571,7.571 4.175,0 7.571,-3.396 7.571,-7.571 z m -12.143,0 c 0,-2.521 2.051,-4.571 4.571,-4.571 2.52,0 4.571,2.051 4.571,4.571 0,2.52 -2.051,4.571 -4.571,4.571 -2.52,0 -4.571,-2.05 -4.571,-4.571 z"
         id="path4517" />
      <path
         inkscape:connector-curvature="0"
         d="m 60.851,38.356 c 4.175,0 7.571,-3.396 7.571,-7.571 0,-4.175 -3.396,-7.571 -7.571,-7.571 -4.175,0 -7.571,3.396 -7.571,7.571 0,4.175 3.396,7.571 7.571,7.571 z m 0,-12.142 c 2.521,0 4.571,2.051 4.571,4.571 0,2.52 -2.051,4.571 -4.571,4.571 -2.52,0 -4.571,-2.051 -4.571,-4.571 0,-2.52 2.05,-4.571 4.571,-4.571 z"
         id="path4519" />
      <path
         inkscape:connector-curvature="0"
         d="m 76.518,70.299 c 0.996,0 1.995,-0.24 2.888,-0.693 1.52,-0.772 2.648,-2.091 3.177,-3.711 0.528,-1.621 0.395,-3.351 -0.378,-4.871 -0.869,-1.709 -2.423,-2.905 -4.236,-3.326 0.07,-0.166 0.133,-0.336 0.19,-0.509 0.528,-1.621 0.395,-3.351 -0.378,-4.871 -1.095,-2.154 -3.277,-3.492 -5.694,-3.492 -0.997,0 -1.995,0.24 -2.888,0.693 -1.52,0.772 -2.648,2.091 -3.177,3.711 -0.507,1.555 -0.404,3.209 0.287,4.682 L 50.007,66.197 33.696,57.912 c 1.447,-3.1 0.177,-6.829 -2.894,-8.392 -1.518,-0.776 -3.247,-0.91 -4.871,-0.381 -1.619,0.529 -2.938,1.655 -3.716,3.178 -0.768,1.522 -0.9,3.252 -0.372,4.871 0.057,0.175 0.121,0.346 0.192,0.514 -1.772,0.416 -3.354,1.579 -4.233,3.321 -0.775,1.516 -0.913,3.244 -0.387,4.864 0.527,1.624 1.656,2.945 3.182,3.722 3.077,1.561 6.845,0.375 8.482,-2.62 l 9.681,4.924 -9.68,4.919 c -1.124,-2.045 -3.249,-3.307 -5.596,-3.307 -0.996,0 -1.995,0.24 -2.888,0.693 -1.52,0.772 -2.648,2.09 -3.177,3.711 -0.528,1.621 -0.395,3.351 0.378,4.871 0.869,1.71 2.423,2.905 4.236,3.326 -0.07,0.166 -0.133,0.336 -0.19,0.509 -0.528,1.621 -0.395,3.351 0.378,4.871 1.095,2.154 3.277,3.492 5.694,3.492 0.997,0 1.995,-0.24 2.888,-0.693 1.52,-0.772 2.648,-2.091 3.177,-3.711 0.507,-1.555 0.404,-3.209 -0.287,-4.682 l 16.311,-8.289 16.305,8.287 c -1.451,3.095 -0.187,6.824 2.886,8.395 0.911,0.463 1.896,0.698 2.889,0.698 0.666,0 1.335,-0.105 1.986,-0.318 1.621,-0.529 2.938,-1.657 3.707,-3.174 0.774,-1.521 0.909,-3.253 0.379,-4.875 -0.057,-0.175 -0.121,-0.347 -0.192,-0.515 1.77,-0.417 3.353,-1.579 4.239,-3.32 1.599,-3.128 0.348,-6.979 -2.798,-8.587 -3.085,-1.555 -6.847,-0.373 -8.479,2.623 l -9.689,-4.92 9.686,-4.922 c 1.122,2.043 3.247,3.304 5.595,3.304 z m -47.587,-6.75 c -0.417,-0.212 -0.908,-0.217 -1.331,-0.015 -0.421,0.203 -0.724,0.591 -0.818,1.049 -0.075,0.367 -0.161,0.633 -0.28,0.858 -0.846,1.664 -2.888,2.333 -4.548,1.492 -0.809,-0.412 -1.408,-1.112 -1.687,-1.973 -0.278,-0.857 -0.206,-1.771 0.208,-2.579 0.838,-1.661 2.879,-2.326 4.55,-1.485 0.739,0.373 1.642,0.076 2.015,-0.664 0.109,-0.217 0.161,-0.447 0.161,-0.674 0,-0.548 -0.302,-1.077 -0.825,-1.34 -0.805,-0.406 -1.402,-1.102 -1.683,-1.96 -0.281,-0.86 -0.21,-1.779 0.194,-2.582 0.412,-0.806 1.113,-1.404 1.973,-1.685 0.859,-0.28 1.773,-0.209 2.576,0.201 1.664,0.847 2.333,2.888 1.494,4.543 -0.117,0.228 -0.289,0.465 -0.541,0.746 -0.312,0.347 -0.444,0.819 -0.358,1.277 0.086,0.458 0.379,0.851 0.795,1.062 l 15.867,8.059 -4.626,2.351 z m 1.895,20.454 c -0.417,0.212 -0.712,0.607 -0.796,1.068 -0.084,0.461 0.052,0.935 0.367,1.28 0.243,0.266 0.411,0.498 0.529,0.731 0.409,0.806 0.48,1.722 0.2,2.581 -0.28,0.859 -0.878,1.558 -1.684,1.967 -0.48,0.245 -0.995,0.368 -1.529,0.368 -1.282,0 -2.439,-0.709 -3.02,-1.851 -0.41,-0.806 -0.48,-1.722 -0.201,-2.582 0.28,-0.859 0.878,-1.558 1.684,-1.967 0.521,-0.265 0.82,-0.792 0.821,-1.338 0,-0.229 -0.053,-0.461 -0.163,-0.679 -0.375,-0.739 -1.279,-1.033 -2.017,-0.658 -0.48,0.245 -0.995,0.368 -1.529,0.368 -1.282,0 -2.439,-0.709 -3.02,-1.851 -0.41,-0.806 -0.48,-1.722 -0.201,-2.582 0.28,-0.859 0.878,-1.558 1.684,-1.967 0.48,-0.245 0.995,-0.368 1.528,-0.368 1.282,0 2.439,0.709 3.02,1.853 0.118,0.231 0.207,0.504 0.279,0.858 0.094,0.458 0.396,0.847 0.818,1.05 0.42,0.203 0.914,0.198 1.331,-0.014 l 13.887,-7.057 c 0.013,-0.007 0.026,-0.012 0.038,-0.019 L 69.17,59.819 c 0.417,-0.212 0.712,-0.607 0.796,-1.068 0.084,-0.461 -0.052,-0.935 -0.367,-1.28 -0.243,-0.266 -0.411,-0.498 -0.529,-0.731 -0.409,-0.806 -0.48,-1.722 -0.2,-2.581 0.28,-0.859 0.878,-1.558 1.684,-1.967 0.48,-0.245 0.995,-0.368 1.529,-0.368 1.282,0 2.439,0.709 3.02,1.851 0.41,0.806 0.48,1.722 0.201,2.582 -0.28,0.859 -0.878,1.558 -1.684,1.967 -0.521,0.265 -0.82,0.792 -0.821,1.338 0,0.229 0.053,0.461 0.163,0.679 0.375,0.738 1.278,1.031 2.017,0.658 0.48,-0.245 0.995,-0.368 1.529,-0.368 1.282,0 2.439,0.709 3.02,1.851 0.41,0.806 0.48,1.722 0.201,2.582 -0.28,0.859 -0.878,1.558 -1.684,1.967 -0.48,0.245 -0.995,0.368 -1.528,0.368 -1.282,0 -2.439,-0.709 -3.02,-1.853 -0.118,-0.231 -0.207,-0.504 -0.279,-0.858 -0.094,-0.459 -0.396,-0.847 -0.818,-1.051 -0.421,-0.203 -0.914,-0.198 -1.332,0.014 z m 40.246,-3.728 c 0.417,0.212 0.909,0.217 1.331,0.014 0.421,-0.203 0.724,-0.591 0.818,-1.049 0.074,-0.361 0.16,-0.624 0.283,-0.863 0.838,-1.662 2.881,-2.328 4.542,-1.489 1.666,0.852 2.332,2.892 1.484,4.549 -0.847,1.663 -2.888,2.332 -4.55,1.491 -0.739,-0.375 -1.642,-0.08 -2.016,0.66 -0.11,0.217 -0.163,0.449 -0.163,0.677 0,0.547 0.301,1.075 0.822,1.339 0.803,0.407 1.4,1.104 1.68,1.962 0.281,0.86 0.209,1.778 -0.202,2.586 -0.407,0.803 -1.104,1.4 -1.963,1.68 -0.86,0.28 -1.777,0.209 -2.581,-0.2 -1.662,-0.85 -2.328,-2.891 -1.486,-4.544 0.127,-0.247 0.298,-0.485 0.523,-0.727 0.321,-0.345 0.461,-0.82 0.379,-1.284 -0.083,-0.463 -0.377,-0.862 -0.797,-1.075 l -15.862,-8.062 4.61,-2.343 z"
         id="path4521" />
    </g>
    <g
       style="fill:#ffffff;fill-opacity:1;fill-rule:evenodd;stroke:none;stroke-width:1"
       sketch:type="MSPage"
       id="g4561"
       transform="matrix(1.3730409,0,0,1.3730409,46.114846,105.91302)">
      <g
         sketch:type="MSArtboardGroup"
         transform="translate(-256,-530)"
         id="g4559"
         style="fill:#ffffff;fill-opacity:1">
        <path
           style="fill:#ffffff;fill-opacity:1"
           inkscape:connector-curvature="0"
           d="M 264.60329,554.94889 C 262.40808,553.20877 261,550.51882 261,547.5 c 0,-5.24671 4.25329,-9.5 9.5,-9.5 3.72006,0 6.94072,2.13822 8.5,5.2527 1.55928,-3.11448 4.77994,-5.2527 8.5,-5.2527 5.24671,0 9.5,4.25329 9.5,9.5 0,3.01882 -1.40808,5.70877 -3.60329,7.44889 -5.27308,5.51277 -13.01082,13.60222 -13.01082,13.60222 -0.76544,0.80024 -2.00384,0.80286 -2.76611,0.006 0,0 -7.85109,-8.20796 -13.01649,-13.60815 z"
           sketch:type="MSShapeGroup"
           id="path4557" />
      </g>
    </g>
  </g>
</svg>
